<?xml version="1.0" standalone="no"?>
<!DOCTYPE svg PUBLIC "-//W3C//DTD SVG 20010904//EN"
 "http://www.w3.org/TR/2001/REC-SVG-20010904/DTD/svg10.dtd">
<svg version="1.0" xmlns="http://www.w3.org/2000/svg"
 width="368.000000pt" height="368.000000pt" viewBox="0 0 368.000000 368.000000"
 preserveAspectRatio="xMidYMid meet">
<metadata>
Created by potrace 1.11, written by Peter Selinger 2001-2013
</metadata>
<g transform="translate(0.000000,368.000000) scale(0.100000,-0.100000)"
fill="#000000" stroke="none">
<path d="M1605 3426 c-167 -28 -329 -80 -321 -103 3 -8 38 -69 76 -136 39 -66
70 -130 68 -141 -4 -29 -375 -238 -399 -225 -10 5 -51 67 -91 139 -40 71 -78
130 -85 130 -23 0 -227 -215 -295 -310 -125 -175 -231 -417 -271 -615 l-14
-70 161 -5 c89 -3 167 -9 174 -13 17 -11 17 -438 0 -455 -8 -8 -60 -12 -169
-12 -87 0 -160 -4 -163 -9 -6 -9 34 -183 63 -269 46 -142 139 -317 238 -450
67 -91 259 -285 276 -279 7 2 46 63 87 135 41 72 83 134 92 137 22 8 392 -205
396 -228 2 -10 -32 -80 -76 -157 l-80 -139 76 -25 c320 -107 690 -107 1014 0
66 22 76 28 69 42 -5 9 -41 73 -80 141 -41 71 -69 131 -66 140 6 20 362 226
390 226 15 0 39 -32 98 -135 42 -74 81 -136 86 -138 14 -5 202 187 264 269 76
101 148 224 196 334 45 101 99 281 108 355 l6 49 -164 3 -164 3 -3 224 c-2
156 1 228 9 237 9 11 47 14 165 14 179 0 167 -11 134 123 -59 236 -147 420
-290 607 -55 72 -221 243 -252 261 -12 7 -32 -20 -93 -126 -43 -74 -85 -137
-93 -140 -9 -3 -78 30 -166 81 -197 114 -226 132 -232 149 -3 7 28 72 70 144
42 72 76 135 76 140 0 12 -129 55 -250 82 -121 27 -449 36 -575 15z m268 -218
c14 -21 2 -48 -22 -48 -30 0 -45 34 -25 55 18 18 33 16 47 -7z m107 -332 c0
-12 -25 -15 -130 -18 -94 -2 -130 0 -130 9 0 18 18 21 143 22 96 1 117 -2 117
-13z m346 -83 c33 -14 83 -42 113 -60 49 -32 52 -36 38 -50 -15 -15 -19 -14
-55 9 -21 14 -67 40 -103 58 -77 39 -71 34 -63 54 8 20 1 21 70 -11z m-871 -2
c3 -5 -3 -12 -14 -16 -11 -3 -61 -31 -111 -61 -51 -31 -95 -53 -98 -49 -10 9
18 31 107 85 85 50 105 58 116 41z m-771 -133 c8 -14 7 -21 -6 -34 -30 -30
-75 9 -48 42 16 18 39 15 54 -8z m164 -104 c2 -11 -3 -26 -11 -33 -29 -24 -70
17 -46 46 17 20 53 12 57 -13z m2067 -4 c0 -20 -5 -25 -25 -25 -20 0 -26 6
-28 28 -3 26 -1 28 25 25 22 -2 28 -8 28 -28z m129 -12 c8 -14 7 -21 -6 -34
-30 -30 -75 9 -48 42 16 18 39 15 54 -8z m-2336 3 c20 -12 11 -55 -12 -59 -27
-6 -48 25 -35 49 10 20 26 24 47 10z m2466 -43 c8 -14 7 -21 -6 -34 -30 -30
-75 9 -48 42 16 18 39 15 54 -8z m-2589 -18 c0 -18 -6 -26 -23 -28 -13 -2 -25
3 -28 12 -10 26 4 48 28 44 17 -2 23 -10 23 -28z m2172 -52 c22 -35 50 -83 62
-106 21 -42 22 -44 4 -57 -16 -12 -20 -9 -40 27 -13 22 -23 42 -23 45 0 3 -20
34 -45 69 -41 57 -44 64 -28 73 26 15 25 16 70 -51z m-1723 34 c3 -5 -6 -25
-20 -45 -13 -20 -42 -68 -62 -107 -27 -49 -42 -66 -49 -59 -12 12 12 62 75
161 37 57 46 66 56 50z m-284 -63 c14 -26 -4 -51 -34 -47 -24 4 -33 33 -16 53
17 21 37 19 50 -6z m360 -73 c0 -31 3 -34 34 -40 69 -13 128 -119 74 -130 -87
-17 -88 -17 -88 12 0 49 -40 70 -60 32 -15 -29 3 -58 77 -119 71 -58 93 -93
93 -146 0 -63 -54 -125 -109 -125 -16 0 -21 -6 -21 -25 0 -16 -6 -25 -15 -25
-9 0 -15 9 -15 23 0 19 -8 26 -40 36 -45 13 -80 58 -80 102 0 24 5 27 50 36
27 6 52 8 55 5 3 -3 5 -18 5 -32 0 -15 7 -33 15 -40 23 -19 45 -4 45 29 0 25
-12 40 -71 87 -81 66 -99 95 -99 158 0 36 6 52 30 80 17 19 44 38 60 41 24 5
30 12 30 34 0 15 3 31 7 34 14 15 23 5 23 -27z m811 -109 c29 -16 54 -40 74
-72 l30 -48 3 -249 c3 -207 1 -257 -13 -297 -54 -164 -279 -192 -370 -46 l-30
48 -3 248 c-3 260 1 301 40 359 53 77 179 104 269 57z m500 0 c29 -16 54 -40
74 -72 l30 -48 3 -249 c3 -207 1 -257 -13 -297 -54 -164 -279 -192 -370 -46
l-30 48 -3 248 c-3 260 1 301 40 359 53 77 179 104 269 57z m-901 -397 l0
-400 -75 0 -75 0 0 295 0 295 -40 0 -40 0 0 63 0 64 41 18 c23 11 48 29 56 42
13 20 24 23 74 23 l59 0 0 -400z m-680 25 c0 -118 -1 -125 -20 -125 -19 0 -20
7 -20 109 0 118 4 141 26 141 11 0 14 -25 14 -125z m2084 109 c3 -9 6 -58 6
-109 0 -101 -5 -125 -25 -125 -11 0 -15 29 -17 125 -3 111 -1 125 13 125 9 0
20 -7 23 -16z m-1990 -558 c13 -29 40 -79 61 -111 28 -45 34 -60 23 -66 -27
-18 -44 -1 -96 100 -50 98 -53 106 -36 118 10 7 19 13 21 13 2 0 14 -24 27
-54z m1901 24 c7 -11 -41 -108 -86 -175 -21 -31 -35 -43 -42 -36 -7 7 0 25 21
58 17 26 43 74 58 106 28 57 37 66 49 47z m-2080 -125 c0 -35 -31 -47 -51 -20
-18 25 0 57 29 53 17 -2 22 -10 22 -33z m2426 -76 c15 -28 -9 -54 -40 -44 -23
7 -28 34 -9 53 18 18 36 15 49 -9z m-2585 -11 c9 -28 -20 -52 -47 -37 -19 10
-25 39 -12 52 15 16 52 6 59 -15z m249 -54 c18 -18 16 -33 -7 -47 -35 -22 -66
21 -36 51 16 16 23 15 43 -4z m2073 4 c19 -19 14 -46 -10 -54 -28 -9 -52 20
-37 47 11 22 30 24 47 7z m-2238 -103 c15 -18 7 -43 -16 -52 -24 -9 -46 24
-33 48 12 23 32 24 49 4z m717 -144 c29 -14 41 -26 37 -36 -9 -22 -19 -19
-114 35 -102 58 -118 73 -101 94 10 12 22 8 74 -29 34 -23 81 -52 104 -64z
m1098 80 c9 -16 -176 -131 -210 -131 -31 0 -13 21 43 49 31 17 77 44 102 60
50 33 56 35 65 22z m-516 -197 c3 -3 0 -9 -5 -14 -7 -7 -58 -10 -130 -8 -98 2
-119 6 -122 18 -2 14 14 15 125 12 70 -2 130 -6 132 -8z m-185 -196 c8 -14 7
-21 -6 -34 -30 -30 -75 9 -48 42 16 18 39 15 54 -8z m190 0 c8 -14 7 -21 -6
-34 -30 -30 -75 9 -48 42 16 18 39 15 54 -8z m-190 -90 c8 -14 7 -21 -6 -34
-30 -30 -75 9 -48 42 16 18 39 15 54 -8z m186 7 c17 -21 3 -57 -22 -53 -30 4
-45 32 -29 52 17 20 35 20 51 1z m-190 -90 c6 -8 9 -23 5 -35 -9 -27 -51 -27
-60 0 -7 23 10 50 30 50 7 0 18 -7 25 -15z m190 0 c6 -8 10 -22 8 -32 -4 -24
-47 -24 -62 0 -9 15 -7 21 8 33 25 18 31 18 46 -1z"/>
<path d="M1784 2079 c-18 -19 -19 -39 -19 -253 0 -207 2 -235 18 -260 25 -37
57 -32 80 14 16 31 17 60 15 256 -3 202 -5 224 -22 243 -24 27 -48 27 -72 0z"/>
<path d="M2284 2079 c-18 -19 -19 -39 -19 -253 0 -207 2 -235 18 -260 25 -37
57 -32 80 14 16 31 17 60 15 256 -3 202 -5 224 -22 243 -24 27 -48 27 -72 0z"/>
</g>
</svg>
